<?xml version="1.0" standalone="no"?><!DOCTYPE svg PUBLIC "-//W3C//DTD SVG 1.1//EN" "http://www.w3.org/Graphics/SVG/1.1/DTD/svg11.dtd"><svg t="1733319224848" class="icon" viewBox="0 0 1024 1024" version="1.1" xmlns="http://www.w3.org/2000/svg" p-id="8719" id="mx_n_1733319224849" xmlns:xlink="http://www.w3.org/1999/xlink" width="200" height="200"><path d="M433.196963 0a39.38039 39.38039 0 0 0-39.38039 39.38039c0 199.14663-275.662727 354.423506-275.662727 630.086233 0 209.424912 226.949185 344.814691 306.891376 353.596518a39.38039 39.38039 0 0 0 33.000766-69.151965C422.170454 924.848449 354.436184 840.495655 354.436184 763.546373 354.436184 637.135323 472.577352 590.705843 472.577352 590.705843c-67.379847 190.601085 153.386617 213.638613 197.807697 402.349441h0.078761a39.38039 39.38039 0 0 0 63.559949 21.659214C740.364001 1010.618937 905.761637 901.259596 905.761637 669.466623c0-94.631076-47.335228-257.153944-81.359884-329.101916l-0.078761-0.236282a39.38039 39.38039 0 0 0-75.374066 7.324752c-0.118141 0.393804-18.19374 80.729799-79.469626 125.111498C669.4793 287.004279 535.507215 95.379304 464.898176 16.067199A39.38039 39.38039 0 0 0 433.196963 0z" fill="#00a66e" p-id="8720"></path></svg>